<?xml version="1.0" encoding="UTF-8" standalone="no"?>
<!DOCTYPE svg PUBLIC "-//W3C//DTD SVG 1.1//EN" "http://www.w3.org/Graphics/SVG/1.1/DTD/svg11.dtd">
<svg xmlns="http://www.w3.org/2000/svg" version="1.1" viewBox="0.00 0.00 1773.00 1773.00">
<g stroke-width="2.00" fill="none" stroke-linecap="butt">
<path stroke="#d6c19b" vector-effect="non-scaling-stroke" d="
  M 924.13 736.64
  Q 996.19 737.18 1096.76 736.81
  Q 1113.54 736.75 1122.66 736.45
  A 0.70 0.70 0.0 0 0 1123.33 735.85
  C 1125.03 722.80 1126.47 709.65 1126.21 696.92
  Q 1125.85 679.33 1123.13 662.65
  A 1.18 1.17 84.6 0 0 1121.95 661.67
  C 1106.21 661.90 1088.61 662.34 1071.68 662.19
  C 1022.12 661.73 971.65 662.04 924.23 661.98
  A 0.94 0.94 0.0 0 1 923.30 661.07
  C 922.26 617.16 923.33 562.77 922.91 512.47
  Q 922.75 494.47 923.38 464.92
  A 0.62 0.61 4.8 0 0 922.85 464.30
  C 899.19 460.65 874.76 460.24 851.20 464.04
  A 0.52 0.50 85.4 0 0 850.78 464.55
  L 850.78 661.46
  A 0.21 0.20 -1.5 0 1 850.58 661.66
  Q 800.53 662.11 724.43 661.86
  C 701.70 661.78 674.62 662.90 650.79 662.00
  A 0.74 0.73 5.7 0 0 650.03 662.62
  Q 644.31 699.24 650.15 735.50
  A 1.70 1.70 0.0 0 0 651.83 736.93
  L 849.93 736.93
  A 0.29 0.28 88.9 0 1 850.21 737.21
  C 851.27 796.93 850.41 862.22 850.75 914.61
  Q 850.97 948.84 850.65 981.46
  C 850.34 1013.27 850.63 1044.41 850.37 1070.75
  A 1.95 1.95 0.0 0 0 850.52 1071.50
  Q 851.38 1073.55 853.10 1075.92
  Q 877.75 1109.97 882.54 1115.98
  Q 884.13 1117.97 885.46 1119.00
  A 1.54 1.54 0.0 0 0 887.61 1118.74
  Q 906.06 1095.43 922.90 1071.21
  A 1.28 1.27 -27.8 0 0 923.13 1070.48
  L 923.13 737.64
  A 1.00 1.00 0.0 0 1 924.13 736.64"
/>
<path stroke="#859197" vector-effect="non-scaling-stroke" d="
  M 830.46 468.25
  A 0.57 0.57 0.0 0 0 829.72 467.72
  C 820.94 470.39 807.17 474.51 797.25 478.56
  Q 738.57 502.47 698.89 552.89
  Q 667.24 593.11 654.52 643.25
  A 0.32 0.32 0.0 0 0 654.84 643.65
  Q 668.57 643.22 684.75 643.34
  Q 695.46 643.42 739.49 643.96
  A 1.12 1.12 0.0 0 0 740.56 643.22
  C 742.54 637.81 745.42 629.53 748.73 623.63
  Q 758.97 605.40 768.82 594.55
  Q 794.50 566.25 830.40 553.04
  A 0.87 0.86 80.7 0 0 830.97 552.24
  Q 831.53 507.47 830.46 468.25"
/>
<path stroke="#f4f4f1" vector-effect="non-scaling-stroke" d="
  M 953.61 558.14
  Q 952.98 558.25 952.85 558.42
  A 0.86 0.86 0.0 0 0 953.17 559.75
  Q 960.43 562.90 966.50 566.22
  C 975.51 571.13 984.75 578.46 993.16 586.91
  C 999.64 593.43 1005.25 598.93 1010.26 605.70
  Q 1020.37 619.34 1027.40 635.35
  Q 1027.95 636.60 1029.48 638.51
  A 0.31 0.31 0.0 0 0 1030.02 638.42
  Q 1030.26 637.76 1030.14 636.77"
/>
<path stroke="#859197" vector-effect="non-scaling-stroke" d="
  M 1030.14 636.77
  L 1032.47 643.37
  A 0.56 0.54 -9.7 0 0 1032.99 643.73
  L 1118.65 643.73
  A 0.58 0.58 0.0 0 0 1119.21 642.99
  L 1113.95 624.45"
/>
<path stroke="#f4f4f1" vector-effect="non-scaling-stroke" d="
  M 1113.95 624.45
  Q 1115.43 621.39 1113.51 617.00
  Q 1112.18 613.96 1112.14 613.85
  C 1111.11 611.13 1109.75 606.79 1108.30 603.75
  Q 1093.93 573.47 1077.18 552.55
  Q 1068.24 541.39 1051.25 524.45
  C 1047.61 520.82 1044.13 518.68 1040.77 515.39
  Q 1037.32 512.00 1032.60 508.54
  Q 1010.91 492.66 986.85 480.93
  C 983.72 479.40 976.62 475.72 971.91 477.08"
/>
<path stroke="#859197" vector-effect="non-scaling-stroke" d="
  M 971.91 477.08
  Q 957.55 471.72 942.49 467.97
  A 0.35 0.35 0.0 0 0 942.06 468.31
  L 942.06 552.78
  A 1.16 1.15 10.9 0 0 942.79 553.85
  L 953.61 558.14"
/>
<path stroke="#8f9ca3" vector-effect="non-scaling-stroke" d="
  M 971.91 477.08
  Q 985.40 482.64 998.22 489.27
  Q 1030.09 505.73 1055.36 531.12
  Q 1094.97 570.94 1113.95 624.45"
/>
<path stroke="#8f9ca3" vector-effect="non-scaling-stroke" d="
  M 1030.14 636.77
  Q 1021.15 613.54 1004.71 595.04
  Q 983.19 570.83 953.61 558.14"
/>
<path stroke="#f4f4f1" vector-effect="non-scaling-stroke" d="
  M 661.25 779.54
  Q 660.92 787.18 665.27 796.97
  Q 673.65 815.84 679.24 826.19
  Q 686.19 839.07 696.18 853.76
  C 707.79 870.84 726.25 898.52 743.36 924.56
  Q 760.22 950.19 777.48 974.48
  C 784.90 984.90 793.77 998.01 798.64 1005.56
  C 803.19 1012.62 807.26 1017.56 813.67 1026.06
  Q 815.17 1028.06 818.51 1029.86"
/>
<path stroke="#859197" vector-effect="non-scaling-stroke" d="
  M 818.51 1029.86
  Q 825.08 1038.53 830.76 1048.00
  A 0.50 0.50 0.0 0 0 831.53 1048.11
  Q 831.65 1048.00 831.62 1047.69
  Q 831.16 1042.25 831.16 1038.73
  Q 831.35 944.18 831.14 876.72
  Q 831.10 862.32 831.42 849.34
  A 0.73 0.72 -79.1 0 0 830.96 848.65
  Q 819.32 843.89 817.32 842.94
  Q 791.14 830.61 771.69 809.25"
/>
<path stroke="#f4f4f1" vector-effect="non-scaling-stroke" d="
  M 771.69 809.25
  Q 772.57 808.02 771.35 806.41
  Q 757.84 788.60 751.30 774.64
  Q 747.13 765.76 743.09 755.57
  Q 742.76 754.73 741.92 754.81
  Q 741.56 754.85 741.49 755.26"
/>
<path stroke="#859197" vector-effect="non-scaling-stroke" d="
  M 741.49 755.26
  L 740.83 754.97
  A 0.49 0.41 50.3 0 0 740.67 754.94
  L 655.00 755.16
  A 0.35 0.34 82.3 0 0 654.67 755.60
  L 661.25 779.54"
/>
<path stroke="#8f9ca3" vector-effect="non-scaling-stroke" d="
  M 741.49 755.26
  Q 750.35 785.78 771.69 809.25"
/>
<path stroke="#8f9ca3" vector-effect="non-scaling-stroke" d="
  M 818.51 1029.86
  Q 791.26 990.31 763.95 950.79
  Q 742.24 919.36 698.80 853.30
  C 683.63 830.24 670.27 805.67 661.25 779.54"
/>
<path stroke="#859197" vector-effect="non-scaling-stroke" d="
  M 942.07 1048.60
  Q 973.96 1002.73 1001.73 961.59
  C 1029.56 920.36 1057.96 880.61 1083.84 838.37
  C 1100.31 811.48 1112.18 784.36 1118.87 755.67
  A 0.63 0.63 0.0 0 0 1118.26 754.90
  L 1033.11 754.90
  A 1.12 1.11 6.5 0 0 1032.02 755.76
  Q 1030.19 763.39 1026.88 770.86
  C 1010.79 807.18 980.50 836.46 942.25 848.43
  A 0.60 0.60 0.0 0 0 941.83 849.00
  Q 941.82 857.69 942.04 1038.75
  Q 942.05 1042.62 941.26 1048.28
  A 0.45 0.45 0.0 0 0 942.07 1048.60"
/>
<path stroke="#859197" vector-effect="non-scaling-stroke" d="
  M 817.38 1288.94
  Q 817.53 1290.43 817.53 1293.75
  Q 817.52 1296.94 820.73 1296.95
  Q 827.89 1296.99 835.87 1296.86
  A 1.23 1.23 0.0 0 0 837.08 1295.63
  L 837.08 1190.09
  A 0.29 0.28 0.0 0 0 836.79 1189.81
  L 817.69 1189.81
  A 0.61 0.61 0.0 0 0 817.08 1190.42
  L 817.08 1227.29
  A 0.36 0.36 0.0 0 1 816.46 1227.53
  C 802.26 1211.79 775.44 1215.79 763.85 1232.58
  C 758.05 1240.98 756.28 1254.62 757.58 1264.98
  C 760.01 1284.41 773.24 1298.16 793.46 1298.41
  Q 807.42 1298.59 816.80 1288.74
  A 0.34 0.34 0.0 0 1 817.38 1288.94"
/>
<path stroke="#859197" vector-effect="non-scaling-stroke" d="
  M 1042.61 1190.38
  A 0.50 0.50 0.0 0 0 1042.11 1189.88
  L 1023.05 1189.88
  A 0.50 0.50 0.0 0 0 1022.55 1190.38
  L 1022.55 1296.34
  A 0.50 0.50 0.0 0 0 1023.05 1296.84
  L 1042.11 1296.84
  A 0.50 0.50 0.0 0 0 1042.61 1296.34
  L 1042.61 1190.38"
/>
<path stroke="#859197" vector-effect="non-scaling-stroke" d="
  M 653.00 1239.08
  L 610.05 1239.08
  A 0.70 0.70 0.0 0 0 609.35 1239.76
  L 608.99 1257.14
  A 0.73 0.72 0.8 0 0 609.72 1257.88
  L 632.20 1257.88
  A 0.35 0.34 -86.3 0 1 632.54 1258.27
  Q 632.07 1261.89 630.64 1265.91
  C 627.17 1275.63 614.49 1279.62 605.18 1278.87
  C 590.65 1277.70 581.13 1268.57 577.44 1254.92
  C 573.99 1242.10 575.92 1229.87 584.68 1219.75
  Q 589.78 1213.85 596.12 1211.88
  C 611.04 1207.25 623.38 1211.26 634.16 1221.97
  A 1.31 1.31 0.0 0 0 635.84 1222.12
  L 649.59 1212.49
  A 1.81 1.81 0.0 0 0 649.97 1209.88
  Q 635.84 1192.10 613.17 1190.32
  C 593.47 1188.78 574.11 1196.82 563.48 1213.63
  C 553.21 1229.87 552.07 1251.25 559.85 1268.97
  C 568.15 1287.85 585.93 1298.66 606.40 1298.79
  Q 629.59 1298.94 644.96 1282.23
  C 652.57 1273.96 654.10 1265.01 653.98 1254.01
  Q 653.84 1241.72 653.52 1239.53
  A 0.53 0.52 -3.7 0 0 653.00 1239.08"
/>
<path stroke="#859197" vector-effect="non-scaling-stroke" d="
  M 932.30 1191.11
  A 1.08 1.07 89.2 0 0 931.26 1192.19
  L 931.26 1294.83
  A 2.26 2.26 0.0 0 0 933.52 1297.09
  L 949.31 1297.09
  A 1.96 1.96 0.0 0 0 951.27 1295.17
  L 951.97 1261.79
  A 0.53 0.52 2.1 0 1 952.53 1261.28
  C 963.31 1261.87 974.49 1262.38 984.90 1259.60
  C 1000.35 1255.48 1010.23 1241.21 1009.56 1225.31
  C 1008.92 1210.05 1000.14 1197.73 985.60 1192.65
  Q 980.68 1190.93 971.28 1190.86
  Q 947.34 1190.68 932.30 1191.11"
/>
<path stroke="#859197" vector-effect="non-scaling-stroke" d="
  M 1163.41 1228.29
  L 1163.58 1220.34
  A 0.71 0.71 0.0 0 0 1162.87 1219.62
  L 1145.33 1219.62
  A 1.00 1.00 0.0 0 0 1144.33 1220.62
  Q 1144.30 1259.79 1144.00 1289.01
  Q 1143.96 1292.93 1144.69 1295.65
  A 1.92 1.90 82.5 0 0 1146.53 1297.07
  L 1163.19 1297.07
  A 0.90 0.90 0.0 0 0 1164.08 1296.27
  Q 1164.27 1294.62 1164.26 1294.27
  Q 1163.67 1268.87 1163.67 1257.54
  C 1163.68 1244.87 1172.19 1235.69 1185.01 1236.40
  C 1194.45 1236.92 1196.97 1244.21 1196.90 1252.32
  Q 1196.70 1278.11 1197.51 1295.61
  A 1.46 1.46 0.0 0 0 1198.97 1297.01
  L 1215.67 1297.01
  A 0.87 0.86 -89.7 0 0 1216.53 1296.15
  Q 1216.98 1268.00 1216.99 1245.79
  C 1217.00 1215.49 1182.16 1209.40 1164.16 1228.59
  A 0.43 0.43 0.0 0 1 1163.41 1228.29"
/>
<path stroke="#859197" vector-effect="non-scaling-stroke" d="
  M 666.49 1260.12
  C 667.52 1280.53 680.46 1295.63 701.26 1298.23
  C 727.07 1301.45 748.15 1282.57 746.82 1256.09
  C 745.49 1229.60 722.62 1212.93 697.26 1218.72
  C 676.83 1223.40 665.47 1239.72 666.49 1260.12"
/>
<path stroke="#859197" vector-effect="non-scaling-stroke" d="
  M 914.25 1230.15
  A 0.67 0.67 0.0 0 0 914.16 1229.20
  C 902.92 1219.87 888.19 1215.50 873.86 1218.85
  C 862.91 1221.41 854.85 1228.18 853.61 1239.88
  C 852.30 1252.16 860.18 1261.27 871.57 1264.47
  Q 875.87 1265.68 888.81 1268.39
  Q 893.24 1269.32 895.61 1273.33
  A 2.55 2.53 -62.6 0 1 895.97 1274.48
  C 896.40 1280.62 889.09 1282.14 884.03 1281.91
  Q 870.85 1281.32 860.98 1273.01
  A 1.23 1.23 0.0 0 0 859.22 1273.18
  Q 855.06 1278.43 852.75 1281.74
  C 851.15 1284.04 849.84 1286.71 852.45 1288.76
  C 863.73 1297.58 879.73 1300.08 893.45 1297.76
  C 906.70 1295.53 917.47 1285.57 916.03 1271.35
  Q 914.74 1258.58 902.10 1253.68
  Q 895.80 1251.24 889.03 1249.95
  C 885.06 1249.19 875.94 1247.90 874.39 1245.29
  C 870.66 1238.99 874.81 1235.70 881.08 1234.94
  C 890.02 1233.86 895.52 1237.52 902.96 1241.82
  A 1.35 1.34 34.8 0 0 904.66 1241.52
  L 914.25 1230.15"
/>
<path stroke="#859197" vector-effect="non-scaling-stroke" d="
  M 1107.51 1290.47
  Q 1107.83 1292.62 1107.56 1294.50
  Q 1107.20 1297.06 1109.48 1297.06
  Q 1118.09 1297.09 1125.49 1296.71
  A 0.76 0.76 0.0 0 0 1126.21 1295.95
  Q 1126.30 1279.63 1126.39 1251.45
  Q 1126.42 1239.86 1124.90 1235.71
  C 1121.28 1225.84 1112.06 1219.69 1101.56 1218.16
  Q 1084.53 1215.68 1069.30 1223.81
  Q 1067.54 1224.74 1061.35 1228.50
  A 1.17 1.17 0.0 0 0 1060.79 1229.58
  Q 1060.88 1230.86 1061.98 1233.00
  Q 1063.60 1236.12 1067.47 1242.81
  A 1.19 1.18 -30.9 0 0 1069.11 1243.22
  C 1076.87 1238.44 1083.95 1235.03 1092.93 1235.23
  C 1101.35 1235.42 1108.49 1239.61 1107.07 1248.87
  Q 1106.66 1251.50 1103.88 1250.89
  C 1090.90 1248.06 1075.71 1248.16 1065.14 1256.99
  C 1052.76 1267.33 1054.29 1286.93 1068.61 1295.12
  Q 1072.84 1297.55 1076.21 1298.25
  Q 1093.85 1301.96 1107.02 1290.29
  A 0.30 0.29 64.6 0 1 1107.51 1290.47"
/>
<path stroke="#859197" vector-effect="non-scaling-stroke" d="
  M 794.6803 1235.9876
  A 22.27 20.39 -96.6 0 0 776.9851 1260.4536
  A 22.27 20.39 -96.6 0 0 799.7997 1280.2324
  A 22.27 20.39 -96.6 0 0 817.4949 1255.7664
  A 22.27 20.39 -96.6 0 0 794.6803 1235.9876"
/>
<path stroke="#859197" vector-effect="non-scaling-stroke" d="
  M 951.68 1210.40
  L 952.33 1241.53
  A 0.43 0.43 0.0 0 0 952.77 1241.95
  L 971.76 1241.56
  A 17.41 15.17 -1.2 0 0 988.85 1226.02
  L 988.82 1224.36
  A 17.41 15.17 -1.2 0 0 971.09 1209.56
  L 952.10 1209.96
  A 0.43 0.43 0.0 0 0 951.68 1210.40"
/>
<path stroke="#859197" vector-effect="non-scaling-stroke" d="
  M 704.2036 1236.0614
  A 22.16 20.31 -96.0 0 0 686.3213 1260.2230
  A 22.16 20.31 -96.0 0 0 708.8364 1280.1386
  A 22.16 20.31 -96.0 0 0 726.7187 1255.9770
  A 22.16 20.31 -96.0 0 0 704.2036 1236.0614"
/>
<path stroke="#859197" vector-effect="non-scaling-stroke" d="
  M 1106.21 1263.93
  C 1099.28 1263.11 1080.20 1261.22 1077.35 1270.84
  Q 1076.47 1273.79 1077.71 1276.54
  C 1079.85 1281.27 1086.07 1282.82 1091.22 1282.53
  C 1098.07 1282.15 1104.77 1278.35 1106.09 1271.35
  Q 1106.80 1267.54 1106.87 1264.69
  A 0.75 0.74 4.2 0 0 1106.21 1263.93"
/>
</g>
<path fill="#eae9e4" d="
  M 0 0 L 1773 0 L 1773 1773 L 0 1773 Z
  M 924.13 736.64
  Q 996.19 737.18 1096.76 736.81
  Q 1113.54 736.75 1122.66 736.45
  A 0.70 0.70 0.0 0 0 1123.33 735.85
  C 1125.03 722.80 1126.47 709.65 1126.21 696.92
  Q 1125.85 679.33 1123.13 662.65
  A 1.18 1.17 84.6 0 0 1121.95 661.67
  C 1106.21 661.90 1088.61 662.34 1071.68 662.19
  C 1022.12 661.73 971.65 662.04 924.23 661.98
  A 0.94 0.94 0.0 0 1 923.30 661.07
  C 922.26 617.16 923.33 562.77 922.91 512.47
  Q 922.75 494.47 923.38 464.92
  A 0.62 0.61 4.8 0 0 922.85 464.30
  C 899.19 460.65 874.76 460.24 851.20 464.04
  A 0.52 0.50 85.4 0 0 850.78 464.55
  L 850.78 661.46
  A 0.21 0.20 -1.5 0 1 850.58 661.66
  Q 800.53 662.11 724.43 661.86
  C 701.70 661.78 674.62 662.90 650.79 662.00
  A 0.74 0.73 5.7 0 0 650.03 662.62
  Q 644.31 699.24 650.15 735.50
  A 1.70 1.70 0.0 0 0 651.83 736.93
  L 849.93 736.93
  A 0.29 0.28 88.9 0 1 850.21 737.21
  C 851.27 796.93 850.41 862.22 850.75 914.61
  Q 850.97 948.84 850.65 981.46
  C 850.34 1013.27 850.63 1044.41 850.37 1070.75
  A 1.95 1.95 0.0 0 0 850.52 1071.50
  Q 851.38 1073.55 853.10 1075.92
  Q 877.75 1109.97 882.54 1115.98
  Q 884.13 1117.97 885.46 1119.00
  A 1.54 1.54 0.0 0 0 887.61 1118.74
  Q 906.06 1095.43 922.90 1071.21
  A 1.28 1.27 -27.8 0 0 923.13 1070.48
  L 923.13 737.64
  A 1.00 1.00 0.0 0 1 924.13 736.64
  Z
  M 830.46 468.25
  A 0.57 0.57 0.0 0 0 829.72 467.72
  C 820.94 470.39 807.17 474.51 797.25 478.56
  Q 738.57 502.47 698.89 552.89
  Q 667.24 593.11 654.52 643.25
  A 0.32 0.32 0.0 0 0 654.84 643.65
  Q 668.57 643.22 684.75 643.34
  Q 695.46 643.42 739.49 643.96
  A 1.12 1.12 0.0 0 0 740.56 643.22
  C 742.54 637.81 745.42 629.53 748.73 623.63
  Q 758.97 605.40 768.82 594.55
  Q 794.50 566.25 830.40 553.04
  A 0.87 0.86 80.7 0 0 830.97 552.24
  Q 831.53 507.47 830.46 468.25
  Z
  M 953.61 558.14
  Q 952.98 558.25 952.85 558.42
  A 0.86 0.86 0.0 0 0 953.17 559.75
  Q 960.43 562.90 966.50 566.22
  C 975.51 571.13 984.75 578.46 993.16 586.91
  C 999.64 593.43 1005.25 598.93 1010.26 605.70
  Q 1020.37 619.34 1027.40 635.35
  Q 1027.95 636.60 1029.48 638.51
  A 0.31 0.31 0.0 0 0 1030.02 638.42
  Q 1030.26 637.76 1030.14 636.77
  L 1032.47 643.37
  A 0.56 0.54 -9.7 0 0 1032.99 643.73
  L 1118.65 643.73
  A 0.58 0.58 0.0 0 0 1119.21 642.99
  L 1113.95 624.45
  Q 1115.43 621.39 1113.51 617.00
  Q 1112.18 613.96 1112.14 613.85
  C 1111.11 611.13 1109.75 606.79 1108.30 603.75
  Q 1093.93 573.47 1077.18 552.55
  Q 1068.24 541.39 1051.25 524.45
  C 1047.61 520.82 1044.13 518.68 1040.77 515.39
  Q 1037.32 512.00 1032.60 508.54
  Q 1010.91 492.66 986.85 480.93
  C 983.72 479.40 976.62 475.72 971.91 477.08
  Q 957.55 471.72 942.49 467.97
  A 0.35 0.35 0.0 0 0 942.06 468.31
  L 942.06 552.78
  A 1.16 1.15 10.9 0 0 942.79 553.85
  L 953.61 558.14
  Z
  M 661.25 779.54
  Q 660.92 787.18 665.27 796.97
  Q 673.65 815.84 679.24 826.19
  Q 686.19 839.07 696.18 853.76
  C 707.79 870.84 726.25 898.52 743.36 924.56
  Q 760.22 950.19 777.48 974.48
  C 784.90 984.90 793.77 998.01 798.64 1005.56
  C 803.19 1012.62 807.26 1017.56 813.67 1026.06
  Q 815.17 1028.06 818.51 1029.86
  Q 825.08 1038.53 830.76 1048.00
  A 0.50 0.50 0.0 0 0 831.53 1048.11
  Q 831.65 1048.00 831.62 1047.69
  Q 831.16 1042.25 831.16 1038.73
  Q 831.35 944.18 831.14 876.72
  Q 831.10 862.32 831.42 849.34
  A 0.73 0.72 -79.1 0 0 830.96 848.65
  Q 819.32 843.89 817.32 842.94
  Q 791.14 830.61 771.69 809.25
  Q 772.57 808.02 771.35 806.41
  Q 757.84 788.60 751.30 774.64
  Q 747.13 765.76 743.09 755.57
  Q 742.76 754.73 741.92 754.81
  Q 741.56 754.85 741.49 755.26
  L 740.83 754.97
  A 0.49 0.41 50.3 0 0 740.67 754.94
  L 655.00 755.16
  A 0.35 0.34 82.3 0 0 654.67 755.60
  L 661.25 779.54
  Z
  M 942.07 1048.60
  Q 973.96 1002.73 1001.73 961.59
  C 1029.56 920.36 1057.96 880.61 1083.84 838.37
  C 1100.31 811.48 1112.18 784.36 1118.87 755.67
  A 0.63 0.63 0.0 0 0 1118.26 754.90
  L 1033.11 754.90
  A 1.12 1.11 6.5 0 0 1032.02 755.76
  Q 1030.19 763.39 1026.88 770.86
  C 1010.79 807.18 980.50 836.46 942.25 848.43
  A 0.60 0.60 0.0 0 0 941.83 849.00
  Q 941.82 857.69 942.04 1038.75
  Q 942.05 1042.62 941.26 1048.28
  A 0.45 0.45 0.0 0 0 942.07 1048.60
  Z
  M 817.38 1288.94
  A 0.34 0.34 0.0 0 0 816.80 1288.74
  Q 807.42 1298.59 793.46 1298.41
  C 773.24 1298.16 760.01 1284.41 757.58 1264.98
  C 756.28 1254.62 758.05 1240.98 763.85 1232.58
  C 775.44 1215.79 802.26 1211.79 816.46 1227.53
  A 0.36 0.36 0.0 0 0 817.08 1227.29
  L 817.08 1190.42
  A 0.61 0.61 0.0 0 1 817.69 1189.81
  L 836.79 1189.81
  A 0.29 0.28 0.0 0 1 837.08 1190.09
  L 837.08 1295.63
  A 1.23 1.23 0.0 0 1 835.87 1296.86
  Q 827.89 1296.99 820.73 1296.95
  Q 817.52 1296.94 817.53 1293.75
  Q 817.53 1290.43 817.38 1288.94
  Z
  M 794.6803 1235.9876
  A 22.27 20.39 -96.6 0 0 776.9851 1260.4536
  A 22.27 20.39 -96.6 0 0 799.7997 1280.2324
  A 22.27 20.39 -96.6 0 0 817.4949 1255.7664
  A 22.27 20.39 -96.6 0 0 794.6803 1235.9876
  Z"
/>
<rect fill="#203949" x="1022.55" y="1189.88" width="20.06" height="106.96" rx="0.50"/>
<path fill="#203949" d="
  M 653.52 1239.53
  Q 653.84 1241.72 653.98 1254.01
  C 654.10 1265.01 652.57 1273.96 644.96 1282.23
  Q 629.59 1298.94 606.40 1298.79
  C 585.93 1298.66 568.15 1287.85 559.85 1268.97
  C 552.07 1251.25 553.21 1229.87 563.48 1213.63
  C 574.11 1196.82 593.47 1188.78 613.17 1190.32
  Q 635.84 1192.10 649.97 1209.88
  A 1.81 1.81 0.0 0 1 649.59 1212.49
  L 635.84 1222.12
  A 1.31 1.31 0.0 0 1 634.16 1221.97
  C 623.38 1211.26 611.04 1207.25 596.12 1211.88
  Q 589.78 1213.85 584.68 1219.75
  C 575.92 1229.87 573.99 1242.10 577.44 1254.92
  C 581.13 1268.57 590.65 1277.70 605.18 1278.87
  C 614.49 1279.62 627.17 1275.63 630.64 1265.91
  Q 632.07 1261.89 632.54 1258.27
  A 0.35 0.34 -86.3 0 0 632.20 1257.88
  L 609.72 1257.88
  A 0.73 0.72 0.8 0 1 608.99 1257.14
  L 609.35 1239.76
  A 0.70 0.70 0.0 0 1 610.05 1239.08
  L 653.00 1239.08
  A 0.53 0.52 -3.7 0 1 653.52 1239.53
  Z"
/>
<path fill="#203949" d="
  M 932.30 1191.11
  Q 947.34 1190.68 971.28 1190.86
  Q 980.68 1190.93 985.60 1192.65
  C 1000.14 1197.73 1008.92 1210.05 1009.56 1225.31
  C 1010.23 1241.21 1000.35 1255.48 984.90 1259.60
  C 974.49 1262.38 963.31 1261.87 952.53 1261.28
  A 0.53 0.52 2.1 0 0 951.97 1261.79
  L 951.27 1295.17
  A 1.96 1.96 0.0 0 1 949.31 1297.09
  L 933.52 1297.09
  A 2.26 2.26 0.0 0 1 931.26 1294.83
  L 931.26 1192.19
  A 1.08 1.07 89.2 0 1 932.30 1191.11
  Z
  M 951.68 1210.40
  L 952.33 1241.53
  A 0.43 0.43 0.0 0 0 952.77 1241.95
  L 971.76 1241.56
  A 17.41 15.17 -1.2 0 0 988.85 1226.02
  L 988.82 1224.36
  A 17.41 15.17 -1.2 0 0 971.09 1209.56
  L 952.10 1209.96
  A 0.43 0.43 0.0 0 0 951.68 1210.40
  Z"
/>
<path fill="#eae9e4" d="
  M 951.68 1210.40
  A 0.43 0.43 0.0 0 1 952.10 1209.96
  L 971.09 1209.56
  A 17.41 15.17 -1.2 0 1 988.82 1224.36
  L 988.85 1226.02
  A 17.41 15.17 -1.2 0 1 971.76 1241.56
  L 952.77 1241.95
  A 0.43 0.43 0.0 0 1 952.33 1241.53
  L 951.68 1210.40
  Z"
/>
<path fill="#203949" d="
  M 1163.41 1228.29
  A 0.43 0.43 0.0 0 0 1164.16 1228.59
  C 1182.16 1209.40 1217.00 1215.49 1216.99 1245.79
  Q 1216.98 1268.00 1216.53 1296.15
  A 0.87 0.86 -89.7 0 1 1215.67 1297.01
  L 1198.97 1297.01
  A 1.46 1.46 0.0 0 1 1197.51 1295.61
  Q 1196.70 1278.11 1196.90 1252.32
  C 1196.97 1244.21 1194.45 1236.92 1185.01 1236.40
  C 1172.19 1235.69 1163.68 1244.87 1163.67 1257.54
  Q 1163.67 1268.87 1164.26 1294.27
  Q 1164.27 1294.62 1164.08 1296.27
  A 0.90 0.90 0.0 0 1 1163.19 1297.07
  L 1146.53 1297.07
  A 1.92 1.90 82.5 0 1 1144.69 1295.65
  Q 1143.96 1292.93 1144.00 1289.01
  Q 1144.30 1259.79 1144.33 1220.62
  A 1.00 1.00 0.0 0 1 1145.33 1219.62
  L 1162.87 1219.62
  A 0.71 0.71 0.0 0 1 1163.58 1220.34
  L 1163.41 1228.29
  Z"
/>
<path fill="#203949" d="
  M 746.82 1256.09
  C 748.15 1282.57 727.07 1301.45 701.26 1298.23
  C 680.46 1295.63 667.52 1280.53 666.49 1260.12
  C 665.47 1239.72 676.83 1223.40 697.26 1218.72
  C 722.62 1212.93 745.49 1229.60 746.82 1256.09
  Z
  M 704.2036 1236.0614
  A 22.16 20.31 -96.0 0 0 686.3213 1260.2230
  A 22.16 20.31 -96.0 0 0 708.8364 1280.1386
  A 22.16 20.31 -96.0 0 0 726.7187 1255.9770
  A 22.16 20.31 -96.0 0 0 704.2036 1236.0614
  Z"
/>
<path fill="#203949" d="
  M 914.25 1230.15
  L 904.66 1241.52
  A 1.35 1.34 34.8 0 1 902.96 1241.82
  C 895.52 1237.52 890.02 1233.86 881.08 1234.94
  C 874.81 1235.70 870.66 1238.99 874.39 1245.29
  C 875.94 1247.90 885.06 1249.19 889.03 1249.95
  Q 895.80 1251.24 902.10 1253.68
  Q 914.74 1258.58 916.03 1271.35
  C 917.47 1285.57 906.70 1295.53 893.45 1297.76
  C 879.73 1300.08 863.73 1297.58 852.45 1288.76
  C 849.84 1286.71 851.15 1284.04 852.75 1281.74
  Q 855.06 1278.43 859.22 1273.18
  A 1.23 1.23 0.0 0 1 860.98 1273.01
  Q 870.85 1281.32 884.03 1281.91
  C 889.09 1282.14 896.40 1280.62 895.97 1274.48
  A 2.55 2.53 -62.6 0 0 895.61 1273.33
  Q 893.24 1269.32 888.81 1268.39
  Q 875.87 1265.68 871.57 1264.47
  C 860.18 1261.27 852.30 1252.16 853.61 1239.88
  C 854.85 1228.18 862.91 1221.41 873.86 1218.85
  C 888.19 1215.50 902.92 1219.87 914.16 1229.20
  A 0.67 0.67 0.0 0 1 914.25 1230.15
  Z"
/>
<path fill="#203949" d="
  M 1107.51 1290.47
  A 0.30 0.29 64.6 0 0 1107.02 1290.29
  Q 1093.85 1301.96 1076.21 1298.25
  Q 1072.84 1297.55 1068.61 1295.12
  C 1054.29 1286.93 1052.76 1267.33 1065.14 1256.99
  C 1075.71 1248.16 1090.90 1248.06 1103.88 1250.89
  Q 1106.66 1251.50 1107.07 1248.87
  C 1108.49 1239.61 1101.35 1235.42 1092.93 1235.23
  C 1083.95 1235.03 1076.87 1238.44 1069.11 1243.22
  A 1.19 1.18 -30.9 0 1 1067.47 1242.81
  Q 1063.60 1236.12 1061.98 1233.00
  Q 1060.88 1230.86 1060.79 1229.58
  A 1.17 1.17 0.0 0 1 1061.35 1228.50
  Q 1067.54 1224.74 1069.30 1223.81
  Q 1084.53 1215.68 1101.56 1218.16
  C 1112.06 1219.69 1121.28 1225.84 1124.90 1235.71
  Q 1126.42 1239.86 1126.39 1251.45
  Q 1126.30 1279.63 1126.21 1295.95
  A 0.76 0.76 0.0 0 1 1125.49 1296.71
  Q 1118.09 1297.09 1109.48 1297.06
  Q 1107.20 1297.06 1107.56 1294.50
  Q 1107.83 1292.62 1107.51 1290.47
  Z
  M 1106.21 1263.93
  C 1099.28 1263.11 1080.20 1261.22 1077.35 1270.84
  Q 1076.47 1273.79 1077.71 1276.54
  C 1079.85 1281.27 1086.07 1282.82 1091.22 1282.53
  C 1098.07 1282.15 1104.77 1278.35 1106.09 1271.35
  Q 1106.80 1267.54 1106.87 1264.69
  A 0.75 0.74 4.2 0 0 1106.21 1263.93
  Z"
/>
<ellipse fill="#eae9e4" cx="0.00" cy="0.00" transform="translate(797.24,1258.11) rotate(-96.6)" rx="22.27" ry="20.39"/>
<ellipse fill="#eae9e4" cx="0.00" cy="0.00" transform="translate(706.52,1258.10) rotate(-96.0)" rx="22.16" ry="20.31"/>
<path fill="#eae9e4" d="
  M 1106.21 1263.93
  A 0.75 0.74 4.2 0 1 1106.87 1264.69
  Q 1106.80 1267.54 1106.09 1271.35
  C 1104.77 1278.35 1098.07 1282.15 1091.22 1282.53
  C 1086.07 1282.82 1079.85 1281.27 1077.71 1276.54
  Q 1076.47 1273.79 1077.35 1270.84
  C 1080.20 1261.22 1099.28 1263.11 1106.21 1263.93
  Z"
/>
<path fill="#c19851" d="
  M 924.13 736.64
  A 1.00 1.00 0.0 0 0 923.13 737.64
  L 923.13 1070.48
  A 1.28 1.27 -27.8 0 1 922.90 1071.21
  Q 906.06 1095.43 887.61 1118.74
  A 1.54 1.54 0.0 0 1 885.46 1119.00
  Q 884.13 1117.97 882.54 1115.98
  Q 877.75 1109.97 853.10 1075.92
  Q 851.38 1073.55 850.52 1071.50
  A 1.95 1.95 0.0 0 1 850.37 1070.75
  C 850.63 1044.41 850.34 1013.27 850.65 981.46
  Q 850.97 948.84 850.75 914.61
  C 850.41 862.22 851.27 796.93 850.21 737.21
  A 0.29 0.28 88.9 0 0 849.93 736.93
  L 651.83 736.93
  A 1.70 1.70 0.0 0 1 650.15 735.50
  Q 644.31 699.24 650.03 662.62
  A 0.74 0.73 5.7 0 1 650.79 662.00
  C 674.62 662.90 701.70 661.78 724.43 661.86
  Q 800.53 662.11 850.58 661.66
  A 0.21 0.20 -1.5 0 0 850.78 661.46
  L 850.78 464.55
  A 0.52 0.50 85.4 0 1 851.20 464.04
  C 874.76 460.24 899.19 460.65 922.85 464.30
  A 0.62 0.61 4.8 0 1 923.38 464.92
  Q 922.75 494.47 922.91 512.47
  C 923.33 562.77 922.26 617.16 923.30 661.07
  A 0.94 0.94 0.0 0 0 924.23 661.98
  C 971.65 662.04 1022.12 661.73 1071.68 662.19
  C 1088.61 662.34 1106.21 661.90 1121.95 661.67
  A 1.18 1.17 84.6 0 1 1123.13 662.65
  Q 1125.85 679.33 1126.21 696.92
  C 1126.47 709.65 1125.03 722.80 1123.33 735.85
  A 0.70 0.70 0.0 0 1 1122.66 736.45
  Q 1113.54 736.75 1096.76 736.81
  Q 996.19 737.18 924.13 736.64
  Z"
/>
<path fill="#203949" d="
  M 830.46 468.25
  Q 831.53 507.47 830.97 552.24
  A 0.87 0.86 80.7 0 1 830.40 553.04
  Q 794.50 566.25 768.82 594.55
  Q 758.97 605.40 748.73 623.63
  C 745.42 629.53 742.54 637.81 740.56 643.22
  A 1.12 1.12 0.0 0 1 739.49 643.96
  Q 695.46 643.42 684.75 643.34
  Q 668.57 643.22 654.84 643.65
  A 0.32 0.32 0.0 0 1 654.52 643.25
  Q 667.24 593.11 698.89 552.89
  Q 738.57 502.47 797.25 478.56
  C 807.17 474.51 820.94 470.39 829.72 467.72
  A 0.57 0.57 0.0 0 1 830.46 468.25
  Z"
/>
<path fill="#203949" d="
  M 971.91 477.08
  Q 985.40 482.64 998.22 489.27
  Q 1030.09 505.73 1055.36 531.12
  Q 1094.97 570.94 1113.95 624.45
  L 1119.21 642.99
  A 0.58 0.58 0.0 0 1 1118.65 643.73
  L 1032.99 643.73
  A 0.56 0.54 -9.7 0 1 1032.47 643.37
  L 1030.14 636.77
  Q 1021.15 613.54 1004.71 595.04
  Q 983.19 570.83 953.61 558.14
  L 942.79 553.85
  A 1.16 1.15 10.9 0 1 942.06 552.78
  L 942.06 468.31
  A 0.35 0.35 0.0 0 1 942.49 467.97
  Q 957.55 471.72 971.91 477.08
  Z"
/>
<path fill="#fefefd" d="
  M 1113.95 624.45
  Q 1094.97 570.94 1055.36 531.12
  Q 1030.09 505.73 998.22 489.27
  Q 985.40 482.64 971.91 477.08
  C 976.62 475.72 983.72 479.40 986.85 480.93
  Q 1010.91 492.66 1032.60 508.54
  Q 1037.32 512.00 1040.77 515.39
  C 1044.13 518.68 1047.61 520.82 1051.25 524.45
  Q 1068.24 541.39 1077.18 552.55
  Q 1093.93 573.47 1108.30 603.75
  C 1109.75 606.79 1111.11 611.13 1112.14 613.85
  Q 1112.18 613.96 1113.51 617.00
  Q 1115.43 621.39 1113.95 624.45
  Z"
/>
<path fill="#fefefd" d="
  M 953.61 558.14
  Q 983.19 570.83 1004.71 595.04
  Q 1021.15 613.54 1030.14 636.77
  Q 1030.26 637.76 1030.02 638.42
  A 0.31 0.31 0.0 0 1 1029.48 638.51
  Q 1027.95 636.60 1027.40 635.35
  Q 1020.37 619.34 1010.26 605.70
  C 1005.25 598.93 999.64 593.43 993.16 586.91
  C 984.75 578.46 975.51 571.13 966.50 566.22
  Q 960.43 562.90 953.17 559.75
  A 0.86 0.86 0.0 0 1 952.85 558.42
  Q 952.98 558.25 953.61 558.14
  Z"
/>
<path fill="#203949" d="
  M 741.49 755.26
  Q 750.35 785.78 771.69 809.25
  Q 791.14 830.61 817.32 842.94
  Q 819.32 843.89 830.96 848.65
  A 0.73 0.72 -79.1 0 1 831.42 849.34
  Q 831.10 862.32 831.14 876.72
  Q 831.35 944.18 831.16 1038.73
  Q 831.16 1042.25 831.62 1047.69
  Q 831.65 1048.00 831.53 1048.11
  A 0.50 0.50 0.0 0 1 830.76 1048.00
  Q 825.08 1038.53 818.51 1029.86
  Q 791.26 990.31 763.95 950.79
  Q 742.24 919.36 698.80 853.30
  C 683.63 830.24 670.27 805.67 661.25 779.54
  L 654.67 755.60
  A 0.35 0.34 82.3 0 1 655.00 755.16
  L 740.67 754.94
  A 0.49 0.41 50.3 0 1 740.83 754.97
  L 741.49 755.26
  Z"
/>
<path fill="#fefefd" d="
  M 771.69 809.25
  Q 750.35 785.78 741.49 755.26
  Q 741.56 754.85 741.92 754.81
  Q 742.76 754.73 743.09 755.57
  Q 747.13 765.76 751.30 774.64
  Q 757.84 788.60 771.35 806.41
  Q 772.57 808.02 771.69 809.25
  Z"
/>
<path fill="#203949" d="
  M 942.07 1048.60
  A 0.45 0.45 0.0 0 1 941.26 1048.28
  Q 942.05 1042.62 942.04 1038.75
  Q 941.82 857.69 941.83 849.00
  A 0.60 0.60 0.0 0 1 942.25 848.43
  C 980.50 836.46 1010.79 807.18 1026.88 770.86
  Q 1030.19 763.39 1032.02 755.76
  A 1.12 1.11 6.5 0 1 1033.11 754.90
  L 1118.26 754.90
  A 0.63 0.63 0.0 0 1 1118.87 755.67
  C 1112.18 784.36 1100.31 811.48 1083.84 838.37
  C 1057.96 880.61 1029.56 920.36 1001.73 961.59
  Q 973.96 1002.73 942.07 1048.60
  Z"
/>
<path fill="#fefefd" d="
  M 661.25 779.54
  C 670.27 805.67 683.63 830.24 698.80 853.30
  Q 742.24 919.36 763.95 950.79
  Q 791.26 990.31 818.51 1029.86
  Q 815.17 1028.06 813.67 1026.06
  C 807.26 1017.56 803.19 1012.62 798.64 1005.56
  C 793.77 998.01 784.90 984.90 777.48 974.48
  Q 760.22 950.19 743.36 924.56
  C 726.25 898.52 707.79 870.84 696.18 853.76
  Q 686.19 839.07 679.24 826.19
  Q 673.65 815.84 665.27 796.97
  Q 660.92 787.18 661.25 779.54
  Z"
/>
<path fill="#203949" d="
  M 817.38 1288.94
  A 0.34 0.34 0.0 0 0 816.80 1288.74
  Q 807.42 1298.59 793.46 1298.41
  C 773.24 1298.16 760.01 1284.41 757.58 1264.98
  C 756.28 1254.62 758.05 1240.98 763.85 1232.58
  C 775.44 1215.79 802.26 1211.79 816.46 1227.53
  A 0.36 0.36 0.0 0 0 817.08 1227.29
  L 817.08 1190.42
  A 0.61 0.61 0.0 0 1 817.69 1189.81
  L 836.79 1189.81
  A 0.29 0.28 0.0 0 1 837.08 1190.09
  L 837.08 1295.63
  A 1.23 1.23 0.0 0 1 835.87 1296.86
  Q 827.89 1296.99 820.73 1296.95
  Q 817.52 1296.94 817.53 1293.75
  Q 817.53 1290.43 817.38 1288.94
  Z
  M 794.6803 1235.9876
  A 22.27 20.39 -96.6 0 0 776.9851 1260.4536
  A 22.27 20.39 -96.6 0 0 799.7997 1280.2324
  A 22.27 20.39 -96.6 0 0 817.4949 1255.7664
  A 22.27 20.39 -96.6 0 0 794.6803 1235.9876
  Z"
/>
<rect fill="#203949" x="1022.55" y="1189.88" width="20.06" height="106.96" rx="0.50"/>
<path fill="#203949" d="
  M 653.52 1239.53
  Q 653.84 1241.72 653.98 1254.01
  C 654.10 1265.01 652.57 1273.96 644.96 1282.23
  Q 629.59 1298.94 606.40 1298.79
  C 585.93 1298.66 568.15 1287.85 559.85 1268.97
  C 552.07 1251.25 553.21 1229.87 563.48 1213.63
  C 574.11 1196.82 593.47 1188.78 613.17 1190.32
  Q 635.84 1192.10 649.97 1209.88
  A 1.81 1.81 0.0 0 1 649.59 1212.49
  L 635.84 1222.12
  A 1.31 1.31 0.0 0 1 634.16 1221.97
  C 623.38 1211.26 611.04 1207.25 596.12 1211.88
  Q 589.78 1213.85 584.68 1219.75
  C 575.92 1229.87 573.99 1242.10 577.44 1254.92
  C 581.13 1268.57 590.65 1277.70 605.18 1278.87
  C 614.49 1279.62 627.17 1275.63 630.64 1265.91
  Q 632.07 1261.89 632.54 1258.27
  A 0.35 0.34 -86.3 0 0 632.20 1257.88
  L 609.72 1257.88
  A 0.73 0.72 0.8 0 1 608.99 1257.14
  L 609.35 1239.76
  A 0.70 0.70 0.0 0 1 610.05 1239.08
  L 653.00 1239.08
  A 0.53 0.52 -3.7 0 1 653.52 1239.53
  Z"
/>
<path fill="#203949" d="
  M 932.30 1191.11
  Q 947.34 1190.68 971.28 1190.86
  Q 980.68 1190.93 985.60 1192.65
  C 1000.14 1197.73 1008.92 1210.05 1009.56 1225.31
  C 1010.23 1241.21 1000.35 1255.48 984.90 1259.60
  C 974.49 1262.38 963.31 1261.87 952.53 1261.28
  A 0.53 0.52 2.1 0 0 951.97 1261.79
  L 951.27 1295.17
  A 1.96 1.96 0.0 0 1 949.31 1297.09
  L 933.52 1297.09
  A 2.26 2.26 0.0 0 1 931.26 1294.83
  L 931.26 1192.19
  A 1.08 1.07 89.2 0 1 932.30 1191.11
  Z
  M 951.68 1210.40
  L 952.33 1241.53
  A 0.43 0.43 0.0 0 0 952.77 1241.95
  L 971.76 1241.56
  A 17.41 15.17 -1.2 0 0 988.85 1226.02
  L 988.82 1224.36
  A 17.41 15.17 -1.2 0 0 971.09 1209.56
  L 952.10 1209.96
  A 0.43 0.43 0.0 0 0 951.68 1210.40
  Z"
/>
<path fill="#eae9e4" d="
  M 951.68 1210.40
  A 0.43 0.43 0.0 0 1 952.10 1209.96
  L 971.09 1209.56
  A 17.41 15.17 -1.2 0 1 988.82 1224.36
  L 988.85 1226.02
  A 17.41 15.17 -1.2 0 1 971.76 1241.56
  L 952.77 1241.95
  A 0.43 0.43 0.0 0 1 952.33 1241.53
  L 951.68 1210.40
  Z"
/>
<path fill="#203949" d="
  M 1163.41 1228.29
  A 0.43 0.43 0.0 0 0 1164.16 1228.59
  C 1182.16 1209.40 1217.00 1215.49 1216.99 1245.79
  Q 1216.98 1268.00 1216.53 1296.15
  A 0.87 0.86 -89.7 0 1 1215.67 1297.01
  L 1198.97 1297.01
  A 1.46 1.46 0.0 0 1 1197.51 1295.61
  Q 1196.70 1278.11 1196.90 1252.32
  C 1196.97 1244.21 1194.45 1236.92 1185.01 1236.40
  C 1172.19 1235.69 1163.68 1244.87 1163.67 1257.54
  Q 1163.67 1268.87 1164.26 1294.27
  Q 1164.27 1294.62 1164.08 1296.27
  A 0.90 0.90 0.0 0 1 1163.19 1297.07
  L 1146.53 1297.07
  A 1.92 1.90 82.5 0 1 1144.69 1295.65
  Q 1143.96 1292.93 1144.00 1289.01
  Q 1144.30 1259.79 1144.33 1220.62
  A 1.00 1.00 0.0 0 1 1145.33 1219.62
  L 1162.87 1219.62
  A 0.71 0.71 0.0 0 1 1163.58 1220.34
  L 1163.41 1228.29
  Z"
/>
<path fill="#203949" d="
  M 746.82 1256.09
  C 748.15 1282.57 727.07 1301.45 701.26 1298.23
  C 680.46 1295.63 667.52 1280.53 666.49 1260.12
  C 665.47 1239.72 676.83 1223.40 697.26 1218.72
  C 722.62 1212.93 745.49 1229.60 746.82 1256.09
  Z
  M 704.2036 1236.0614
  A 22.16 20.31 -96.0 0 0 686.3213 1260.2230
  A 22.16 20.31 -96.0 0 0 708.8364 1280.1386
  A 22.16 20.31 -96.0 0 0 726.7187 1255.9770
  A 22.16 20.31 -96.0 0 0 704.2036 1236.0614
  Z"
/>
<path fill="#203949" d="
  M 914.25 1230.15
  L 904.66 1241.52
  A 1.35 1.34 34.8 0 1 902.96 1241.82
  C 895.52 1237.52 890.02 1233.86 881.08 1234.94
  C 874.81 1235.70 870.66 1238.99 874.39 1245.29
  C 875.94 1247.90 885.06 1249.19 889.03 1249.95
  Q 895.80 1251.24 902.10 1253.68
  Q 914.74 1258.58 916.03 1271.35
  C 917.47 1285.57 906.70 1295.53 893.45 1297.76
  C 879.73 1300.08 863.73 1297.58 852.45 1288.76
  C 849.84 1286.71 851.15 1284.04 852.75 1281.74
  Q 855.06 1278.43 859.22 1273.18
  A 1.23 1.23 0.0 0 1 860.98 1273.01
  Q 870.85 1281.32 884.03 1281.91
  C 889.09 1282.14 896.40 1280.62 895.97 1274.48
  A 2.55 2.53 -62.6 0 0 895.61 1273.33
  Q 893.24 1269.32 888.81 1268.39
  Q 875.87 1265.68 871.57 1264.47
  C 860.18 1261.27 852.30 1252.16 853.61 1239.88
  C 854.85 1228.18 862.91 1221.41 873.86 1218.85
  C 888.19 1215.50 902.92 1219.87 914.16 1229.20
  A 0.67 0.67 0.0 0 1 914.25 1230.15
  Z"
/>
<path fill="#203949" d="
  M 1107.51 1290.47
  A 0.30 0.29 64.6 0 0 1107.02 1290.29
  Q 1093.85 1301.96 1076.21 1298.25
  Q 1072.84 1297.55 1068.61 1295.12
  C 1054.29 1286.93 1052.76 1267.33 1065.14 1256.99
  C 1075.71 1248.16 1090.90 1248.06 1103.88 1250.89
  Q 1106.66 1251.50 1107.07 1248.87
  C 1108.49 1239.61 1101.35 1235.42 1092.93 1235.23
  C 1083.95 1235.03 1076.87 1238.44 1069.11 1243.22
  A 1.19 1.18 -30.9 0 1 1067.47 1242.81
  Q 1063.60 1236.12 1061.98 1233.00
  Q 1060.88 1230.86 1060.79 1229.58
  A 1.17 1.17 0.0 0 1 1061.35 1228.50
  Q 1067.54 1224.74 1069.30 1223.81
  Q 1084.53 1215.68 1101.56 1218.16
  C 1112.06 1219.69 1121.28 1225.84 1124.90 1235.71
  Q 1126.42 1239.86 1126.39 1251.45
  Q 1126.30 1279.63 1126.21 1295.95
  A 0.76 0.76 0.0 0 1 1125.49 1296.71
  Q 1118.09 1297.09 1109.48 1297.06
  Q 1107.20 1297.06 1107.56 1294.50
  Q 1107.83 1292.62 1107.51 1290.47
  Z
  M 1106.21 1263.93
  C 1099.28 1263.11 1080.20 1261.22 1077.35 1270.84
  Q 1076.47 1273.79 1077.71 1276.54
  C 1079.85 1281.27 1086.07 1282.82 1091.22 1282.53
  C 1098.07 1282.15 1104.77 1278.35 1106.09 1271.35
  Q 1106.80 1267.54 1106.87 1264.69
  A 0.75 0.74 4.2 0 0 1106.21 1263.93
  Z"
/>
<ellipse fill="#eae9e4" cx="0.00" cy="0.00" transform="translate(797.24,1258.11) rotate(-96.6)" rx="22.27" ry="20.39"/>
<ellipse fill="#eae9e4" cx="0.00" cy="0.00" transform="translate(706.52,1258.10) rotate(-96.0)" rx="22.16" ry="20.31"/>
<path fill="#eae9e4" d="
  M 1106.21 1263.93
  A 0.75 0.74 4.2 0 1 1106.87 1264.69
  Q 1106.80 1267.54 1106.09 1271.35
  C 1104.77 1278.35 1098.07 1282.15 1091.22 1282.53
  C 1086.07 1282.82 1079.85 1281.27 1077.71 1276.54
  Q 1076.47 1273.79 1077.35 1270.84
  C 1080.20 1261.22 1099.28 1263.11 1106.21 1263.93
  Z"
/>
</svg>
